<svg width="240" height="260" viewBox="0 0 240 260" fill="none" xmlns="http://www.w3.org/2000/svg" role="img" aria-label="Logo Kỳ Thú">
  <defs>
    <linearGradient id="g1" x1="30" y1="10" x2="210" y2="220" gradientUnits="userSpaceOnUse">
      <stop stop-color="#2ecc71" />
      <stop offset="1" stop-color="#27ae60" />
    </linearGradient>
    <linearGradient id="g2" x1="120" y1="20" x2="120" y2="180" gradientUnits="userSpaceOnUse">
      <stop stop-color="#ffffff" stop-opacity="0.9" />
      <stop offset="1" stop-color="#d1f5e0" stop-opacity="0.9" />
    </linearGradient>
  </defs>
  <rect x="12" y="20" width="216" height="216" rx="28" fill="url(#g1)" />
  <g opacity="0.12">
    <path d="M120 34L40 80v100l80 46 80-46V80L120 34Z" fill="#0b4f30" />
  </g>
  <path d="M120 48 56 86v88l64 38 64-38V86L120 48Z" fill="url(#g2)" stroke="#2ecc71" stroke-width="6" />
  <path d="M120 120 56 86l64-38 64 38-64 34Z" fill="#2ecc71" opacity="0.18" />
  <path d="M120 120v92" stroke="#2ecc71" stroke-width="8" stroke-linecap="round" />
  <path d="m120 120-60 34v20l60-34 60 34v-20l-60-34Z" fill="#2ecc71" opacity="0.7" />
  <g fill="#27ae60">
    <path d="M86 154c0-10 8-18 18-18h12v48h-12c-10 0-18-8-18-18v-12Z" />
    <path d="M154 154c0-10-8-18-18-18h-12v48h12c10 0 18-8 18-18v-12Z" />
  </g>
  <circle cx="120" cy="124" r="18" fill="#27ae60" stroke="#145a32" stroke-width="4" />
  <path d="M120 108c-9 0-16 7-16 16s7 16 16 16 16-7 16-16-7-16-16-16Zm0 6 6 10h-12l6-10Z" fill="#d6ffe9" />
  <g transform="translate(120 172)">
    <circle r="38" fill="#a00" stroke="#f6c" stroke-width="4" />
    <path d="M-10-12h20l-2 12h-16l-2-12Zm-2 12h24v10c0 9-5 18-12 22-7-4-12-13-12-22v-10Zm-4-8v18h-8v-12l8-6Zm32 0 8 6v12h-8v-18Z" fill="#ffe8e8" />
    <path d="M0-26c7 0 12 5 12 12s-5 12-12 12-12-5-12-12 5-12 12-12Z" fill="#fff" />
  </g>
</svg>
